<?xml version="1.0" encoding="UTF-8"?>
<!DOCTYPE svg PUBLIC "-//W3C//DTD SVG 1.1//EN" "http://www.w3.org/Graphics/SVG/1.1/DTD/svg11.dtd">
<!-- Creator: CorelDRAW -->
<svg xmlns="http://www.w3.org/2000/svg" xml:space="preserve" width="21.6746mm" height="21.6746mm" version="1.1" style="shape-rendering:geometricPrecision; text-rendering:geometricPrecision; image-rendering:optimizeQuality; fill-rule:evenodd; clip-rule:evenodd"
viewBox="0 0 2167.46 2167.46"
 xmlns:xlink="http://www.w3.org/1999/xlink"
 xmlns:xodm="http://www.corel.com/coreldraw/odm/2003">
 <defs>
  <style type="text/css">
   <![CDATA[
    .fil0 {fill:#0D6EFD}
   ]]>
  </style>
 </defs>
 <g id="Layer_x0020_1">
  <metadata id="CorelCorpID_0Corel-Layer"/>
  <path class="fil0" d="M948.57 194.06c276.59,-48.38 538.5,55.68 700.06,187.52 390.83,318.94 454.16,851.97 134.17,1273.68l-111.5 114.24c-36.07,30.9 -87.74,67.81 -132.4,93.61 -340.81,196.94 -741.04,145.59 -1022.34,-76.7 -153.04,-120.93 -284.97,-302.58 -329.13,-573.88 -45.99,-282.49 61.93,-527.92 188.51,-691.43 140.2,-181.11 338.58,-286.1 572.63,-327.04zm1209.59 998.81c50.86,-308.17 -117.01,-660.38 -257.29,-814.25 -164.36,-180.28 -371.15,-319.37 -707.6,-366.27 -319.24,-44.5 -650.94,107.45 -815.22,254.03 -182.15,162.53 -322.66,365.68 -370.72,703.67 -38.95,273.97 81.61,640.55 257.48,818.78 93.49,94.75 162.24,164.89 298.23,239.15 489.13,267.11 1033.66,116.66 1358.46,-265.17 140.91,-165.64 199.21,-342.98 236.66,-569.94z"/>
  <path class="fil0" d="M991.22 995.3c-82.41,0.36 -164.88,0.12 -247.3,0.09 -85.39,-0.04 -161.58,-3.51 -161.6,88.18 -0.02,91.49 76.76,88.7 161.6,88.65 82.42,-0.05 164.89,-0.27 247.3,0.08 31.36,171.51 -56.32,405.3 87.8,410.52 153.64,5.57 63.76,-238.23 95.36,-410.52 82.41,-0.35 164.9,-0.13 247.32,-0.08 83.69,0.05 162.3,2 161.13,-88.68 -1.21,-93.4 -74.08,-88.19 -161.13,-88.15 -82.42,0.03 -164.9,0.27 -247.32,-0.09 -31.59,-172.21 56.73,-405.28 -87.83,-410.29 -155.31,-5.39 -62.77,232.24 -95.33,410.29z"/>
  <image x="-17583.37" y="-6470.42" width="12241.38" height="10865.54" xlink:href="add_Images\add_ImgID1.png"/>
 </g>
</svg>
