<?xml version="1.0" encoding="UTF-8"?>
<!DOCTYPE svg PUBLIC "-//W3C//DTD SVG 1.1//EN" "http://www.w3.org/Graphics/SVG/1.1/DTD/svg11.dtd">
<!-- Creator: CorelDRAW -->
<svg xmlns="http://www.w3.org/2000/svg" xml:space="preserve" width="21.6746mm" height="21.6746mm" version="1.1" style="shape-rendering:geometricPrecision; text-rendering:geometricPrecision; image-rendering:optimizeQuality; fill-rule:evenodd; clip-rule:evenodd"
viewBox="0 0 2167.46 2167.46"
 xmlns:xlink="http://www.w3.org/1999/xlink"
 xmlns:xodm="http://www.corel.com/coreldraw/odm/2003">
 <defs>
  <style type="text/css">
   <![CDATA[
    .fil0 {fill:#ED3237}
   ]]>
  </style>
 </defs>
 <g id="Layer_x0020_1">
  <metadata id="CorelCorpID_0Corel-Layer"/>
  <path class="fil0" d="M547.25 434.67l28.84 56.66c52.99,119.4 326.83,762.31 352.97,794.3l-25.05 -461.61c59.78,34.39 231.04,249.26 266.51,249.86 15.19,0.25 179.94,-57.52 188.31,-65.78 2.7,-2.67 50.11,-127.29 161.61,-79.86 58.59,24.93 92.06,115.78 44.46,175.85 -73.25,92.45 -136.24,9.48 -188.86,23 -173.47,44.57 -222.57,108.73 -271.51,55.74 -23.81,-25.78 -38.14,-48.08 -69.97,-63.79l26.04 494.12 -109.73 23.61 -184.67 -424.78c-29.33,-65.29 -163.47,-391.04 -190.28,-421.98l35.72 595.66c-41.88,11.07 -209.85,63.67 -232.1,82.82 16.92,18.23 60.09,55.2 84.87,74.87l619.32 494.53c23.13,-15.48 17.54,-15.01 36.05,-34.08l262.07 -208.4c272.25,-193.05 684.39,-510.89 766.5,-864.71 121.99,-525.63 -364.37,-919.27 -767.52,-767.91 -87.33,32.79 -182.41,100.44 -236.71,167.52 -17.99,22.22 -42.07,56.89 -60.39,73.61 -55.73,-46.48 -158.82,-255.27 -448.09,-273.28 -455.58,-28.37 -843.86,520.51 -510.41,1046.45 49.21,77.62 96.37,131.16 157.46,193.91 34.09,-6.33 74.15,-22.31 105.2,-32.66 29.86,-9.96 80.36,-23.31 104.71,-39.55l-51.67 -841.53 106.32 -22.59z"/>
 </g>
</svg>
