<?xml version="1.0" encoding="UTF-8"?>
<!DOCTYPE svg PUBLIC "-//W3C//DTD SVG 1.1//EN" "http://www.w3.org/Graphics/SVG/1.1/DTD/svg11.dtd">
<!-- Creator: CorelDRAW -->
<svg xmlns="http://www.w3.org/2000/svg" xml:space="preserve" width="10.8372mm" height="10.8372mm" version="1.1" style="shape-rendering:geometricPrecision; text-rendering:geometricPrecision; image-rendering:optimizeQuality; fill-rule:evenodd; clip-rule:evenodd"
viewBox="0 0 1083.72 1083.72"
 xmlns:xlink="http://www.w3.org/1999/xlink"
 xmlns:xodm="http://www.corel.com/coreldraw/odm/2003">
 <defs>
  <style type="text/css">
   <![CDATA[
    .fil0 {fill:#ED3237}
   ]]>
  </style>
 </defs>
 <g id="Layer_x0020_1">
  <metadata id="CorelCorpID_0Corel-Layer"/>
  <path class="fil0" d="M541.48 571.04c36.06,-17.45 97.49,-138.72 169.18,-68.07 70.07,69.06 -46.96,138.05 -67.67,169.19 21.33,31.05 137.69,100.12 67.47,168.99 -72.52,71.12 -126.55,-48.15 -168.98,-68.1 -36.11,27.51 -104.6,135.18 -169.61,68.72 -24.1,-24.64 -27.26,-69.74 0.46,-97.79 19.87,-20.11 56.29,-49.62 68.94,-71.82 -21.86,-39.72 -136.97,-100.29 -69.62,-169.83 64.24,-66.33 134.56,40.57 169.83,68.71zm405.01 -308.46l-808.81 -0.7c8.62,192.54 21.93,386.05 33.99,578.47 6.31,100.67 -7.47,201.34 70.65,232.52 42.24,16.86 238.31,9.04 299.16,9.04 58.59,0 254.09,6.88 296.21,-7.8 81.75,-28.49 68.52,-139.49 74.27,-234.34 11.64,-192.24 24.83,-385.11 34.53,-577.19z"/>
  <path class="fil0" d="M304.74 69.71c-39.37,-0.43 -171.29,-5.7 -199.33,5.56 -54.02,21.68 -48.27,110.7 13.88,123.08 34.11,6.79 547.43,2.15 629.33,2.15 56.14,0 160.96,6.08 211.4,-1.25 70.7,-10.29 68.94,-102.06 20.62,-122.71 -31.48,-13.45 -159.21,-7.14 -202.43,-6.89 -10.25,-15.48 -13.69,-67.63 -84.35,-69.66l-304.77 0c-31.89,0.92 -59.76,15.18 -72.38,41.4l-7.03 18.78c-4.09,9.38 -1.71,4.77 -4.94,9.54z"/>
 </g>
</svg>
