<?xml version="1.0" encoding="UTF-8"?>
<!DOCTYPE svg PUBLIC "-//W3C//DTD SVG 1.1//EN" "http://www.w3.org/Graphics/SVG/1.1/DTD/svg11.dtd">
<!-- Creator: CorelDRAW -->
<svg xmlns="http://www.w3.org/2000/svg" xml:space="preserve" width="10.8372mm" height="10.6704mm" version="1.1" style="shape-rendering:geometricPrecision; text-rendering:geometricPrecision; image-rendering:optimizeQuality; fill-rule:evenodd; clip-rule:evenodd"
viewBox="0 0 1083.72 1067.04"
 xmlns:xlink="http://www.w3.org/1999/xlink"
 xmlns:xodm="http://www.corel.com/coreldraw/odm/2003">
 <defs>
  <style type="text/css">
   <![CDATA[
    .fil0 {fill:#22C55E}
   ]]>
  </style>
 </defs>
 <g id="Layer_x0020_1">
  <metadata id="CorelCorpID_0Corel-Layer"/>
  <g id="_2008309954240">
   <path class="fil0" d="M192.63 796.83l10.66 -121.54c3.24,-21.54 5.18,-18.25 26.52,-39.59l434.96 -436.14 125.7 124.53c-10.87,7.48 -24.54,23.35 -34.22,33.04l-416.63 416.72c-9.67,9.94 -7.14,9.46 -23.74,11.67l-123.25 11.31zm528.21 -650.98c9.94,-14.55 54.4,-61.96 83.22,-61.96 36.2,0 41.5,11.97 65.5,35.99 26.51,26.5 36.01,29.13 36.01,67.88 0,20.39 -14.54,34.66 -25.39,45.44 -10.11,10.05 -25.45,27.75 -35.99,34.81l-123.35 -122.16zm-606.11 669.86c0,28.02 24.23,53.03 45.81,58.06 24.27,5.65 63.16,-1.96 91.02,-3.85 13.35,-0.89 32.1,-3.33 45.14,-4.43 59.92,-5.05 63.7,-3.91 106.63,-46.83l507.55 -507.56c36.02,-36.01 72.58,-63.63 72.58,-132.8 0,-52.33 -29.29,-82.4 -58.42,-111.54 -38.35,-38.36 -58.32,-58.42 -123.34,-58.42 -25.35,0 -54.72,11.33 -70.43,21.64 -27.83,18.33 -299.18,294.85 -329.12,324.79l-232.55 232.54c-15.23,15.21 -33,31.2 -38.94,55.47l-8.93 85.5c-1.6,29.01 -7,55.01 -7,87.43z"/>
   <path class="fil0" d="M46.26 1075.38l991.51 0c63.78,0 56.34,-77.89 7.08,-77.89l-1005.67 0c-49.95,0 -56.92,77.89 7.08,77.89z"/>
  </g>
 </g>
</svg>
