<?xml version="1.0" encoding="UTF-8"?>
<!DOCTYPE svg PUBLIC "-//W3C//DTD SVG 1.1//EN" "http://www.w3.org/Graphics/SVG/1.1/DTD/svg11.dtd">
<!-- Creator: CorelDRAW -->
<svg xmlns="http://www.w3.org/2000/svg" xml:space="preserve" width="21.6746mm" height="21.6746mm" version="1.1" style="shape-rendering:geometricPrecision; text-rendering:geometricPrecision; image-rendering:optimizeQuality; fill-rule:evenodd; clip-rule:evenodd"
viewBox="0 0 2167.46 2167.46"
 xmlns:xlink="http://www.w3.org/1999/xlink"
 xmlns:xodm="http://www.corel.com/coreldraw/odm/2003">
 <defs>
  <style type="text/css">
   <![CDATA[
    .fil0 {fill:#FFCC29}
   ]]>
  </style>
 </defs>
 <g id="Layer_x0020_1">
  <metadata id="CorelCorpID_0Corel-Layer"/>
  <g id="_2545040740256">
   <path class="fil0" d="M951.02 874.5c31.79,5.98 180.69,98.76 229.85,127.41 56.4,32.86 178.41,115.98 240.12,115.17 88.5,-1.15 377.66,-219.32 465.46,-243.6l-1.63 473.21c-52.13,38.17 -141.85,85.72 -201.36,119.13 -42.15,23.66 -170.7,107.95 -211.4,114.2 1.54,-77.86 0.45,-156.56 0.45,-234.52 0.01,-63.72 19.75,-170.3 -58.34,-164.56 -69.95,5.14 -50.11,106.62 -50.11,172.04 0.01,76.16 -0.72,152.66 0.39,228.77 -35.62,-8.67 -387.05,-214.09 -414.1,-236.5l0.67 -470.75zm60.92 -97.5c8.59,-16.44 381.97,-234.39 408.6,-233.44 24.42,0.86 165.67,89.64 209.08,114 36.53,20.5 180.44,98.52 194.62,119.44l-201.6 119.36c-26.39,15.01 -183.25,112.57 -207.69,110.59 -13.96,-1.14 -377.38,-208.88 -403.01,-229.95zm-168.82 568.5c10.99,89.95 94.13,119.7 153.81,154.9 67.1,39.58 129.74,74.9 194.12,112.43 233.38,136.03 202.2,147.71 415.37,22.67 440.49,-258.37 388.46,-157.33 388.46,-529.37 0,-87.09 7.67,-216.59 -1.08,-298.61 -9.13,-85.62 -85.64,-114.65 -152.06,-152.49 -70.27,-40.03 -133.44,-77.15 -194.57,-112.19 -239.49,-137.25 -200.35,-149.06 -411.73,-26.36 -67.84,39.39 -121.97,70.22 -194.58,111.76 -58.36,33.39 -154.73,77.87 -180.85,126.63 -32.24,60.17 -17.38,212.47 -17.38,291.42 0,81.82 -8.62,224.69 0.49,299.21z"/>
   <path class="fil0" d="M275.71 1480.15l0.02 -7.48c0.42,-199.92 164.38,-565.23 239.33,-726.85 41.26,-88.97 289.43,-610.56 329.95,-635.68 44.21,19.58 184.14,361.94 221.35,393.17 27.54,23.11 73.79,13.11 84.74,-20.85 14.53,-45.03 -126.32,-288.28 -155.08,-342.14 -32.21,-60.33 -53.22,-120.59 -116.91,-136.22 -124.43,-30.56 -174.52,115.29 -242.28,250.76 -110.06,220.04 -221.42,433.46 -319.57,674.69 -98.38,241.84 -214.43,530.62 -100.91,813.39 148.29,369.38 593.17,546.98 975.66,330.87 59.34,-33.53 260.51,-188.86 218.69,-261.97 -48.78,-85.27 -131.24,49.58 -138.9,57.82 -364.9,392.58 -997.22,135.79 -996.09,-389.51z"/>
   <path class="fil0" d="M400.83 1562.43c22.91,139.8 104.89,236.26 193.57,295.07 205.93,136.59 363.03,31.37 262.25,-30.37 -28.34,-17.36 -293.83,-5.77 -346.34,-272.86 -6.17,-31.41 -0.8,-79.9 -18.87,-102.42 -14.24,-17.75 -118.35,-58.66 -90.61,110.58z"/>
  </g>
 </g>
</svg>
