<?xml version="1.0" encoding="UTF-8"?>
<!DOCTYPE svg PUBLIC "-//W3C//DTD SVG 1.1//EN" "http://www.w3.org/Graphics/SVG/1.1/DTD/svg11.dtd">
<!-- Creator: CorelDRAW -->
<svg xmlns="http://www.w3.org/2000/svg" xml:space="preserve" width="21.6746mm" height="21.6746mm" version="1.1" style="shape-rendering:geometricPrecision; text-rendering:geometricPrecision; image-rendering:optimizeQuality; fill-rule:evenodd; clip-rule:evenodd"
viewBox="0 0 2167.46 2167.46"
 xmlns:xlink="http://www.w3.org/1999/xlink"
 xmlns:xodm="http://www.corel.com/coreldraw/odm/2003">
 <defs>
  <style type="text/css">
   <![CDATA[
    .fil0 {fill:#00A859}
   ]]>
  </style>
 </defs>
 <g id="Layer_x0020_1">
  <metadata id="CorelCorpID_0Corel-Layer"/>
  <g id="_2545298805040">
   <path class="fil0" d="M1363.63 2077.63c19.44,-11.03 24.44,-16.03 51.23,-11.66 305.84,49.92 589.21,-178.36 567.56,-482.27 -0.37,-141.67 -72.5,-291.21 -185.56,-378.35 -69.13,-53.29 -41.62,-14.73 -75.25,-110.36 -83.66,-237.89 -244.83,-485.59 -386.44,-689.1 -73.98,-106.29 -161.7,-212.44 -237.76,-311.3 -33.18,-43.13 -74.1,-101.35 -124.47,-93.95 -32.03,4.7 -48.12,26.33 -64.55,45.86 -9,10.71 -14.52,18.79 -23.15,30.2 -7.95,10.51 -15.83,16.77 -24.96,27.96 -167.63,205.49 -318.46,412.74 -454.09,647.94 -51.78,89.81 -105.79,196.11 -143.87,294.13l-41.81 121.96c-42.78,136.72 -50.44,288.47 -10.45,426.04 22.48,88.76 61.04,165.01 113.71,240.8 213.62,315.25 712.58,427.79 1039.86,242.1zm-1048.82 -726.36c11.13,-103.83 43.38,-197.05 81.63,-289.54 66.16,-160.03 169.93,-331.63 267.74,-475.98 44.41,-65.55 278.83,-392.79 320.8,-422.45 19.11,25.25 41.81,51.47 63.1,78.11 106.65,133.47 200.62,265.37 294.65,408.93l106.33 170.12c22.12,61.76 113.56,196.74 135.7,287.1 -99.38,-7.21 -184.51,-14.27 -285,33.9 -147.18,70.56 -260,198.08 -283.09,363.33 -32.56,232.89 43.91,354.85 210.21,495.83 -216.71,124.23 -942.34,24.76 -912.07,-649.35zm1401.28 128.8l4.25 5.02 -0.29 4.02c33.62,90.91 13.13,183.86 -38.75,246.71 -0.83,1 -3.33,3.72 -4.21,4.66 -31.62,33.87 -52.27,48.45 -97.16,66.26l-37.46 10.99c-4,0.75 -7.24,1.24 -11.21,1.85 -21.17,3.21 -37.38,4.36 -59.09,2.59 -175.35,-14.29 -278.72,-195.88 -201.29,-350.13 65.06,-129.62 220.66,-161.12 325.74,-110.56 67.56,32.51 86.1,64.12 119.47,118.59zm59.28 229.07l-36.46 -21.78c32.42,-61.87 101.39,-50.52 123.01,-11.62 32.11,57.8 -48.27,91.85 -52.75,118.61l67.37 0.01 -2.9 40.39 -131.92 0.53c-1.91,-33.76 -5.26,-29.39 39.42,-74.96 17.33,-17.68 50.72,-36.68 39.7,-74.64 -14.66,-3.31 -16.43,-6.22 -30.77,3.48l-14.7 19.98z"/>
   <path class="fil0" d="M1460.17 1432.71c-70.84,16.88 -127.1,91.35 -106.49,184.79 41.88,189.88 316.76,131.23 274.57,-71.18 -15.03,-72.08 -77.79,-135.14 -168.08,-113.61z"/>
   <path class="fil0" d="M736 1751.9c18.1,106.98 188.78,93.69 175.2,-26.65 -4.94,-43.76 -49.98,-84.03 -103.09,-75.29 -43.69,7.2 -81.43,46.9 -72.11,101.94z"/>
   <circle class="fil0" cx="601.39" cy="1312.21" r="127.47"/>
   <circle class="fil0" cx="1148.84" cy="875.45" r="114.19"/>
   <circle class="fil0" cx="966.36" cy="573.31" r="79.67"/>
  </g>
 </g>
</svg>
