<?xml version="1.0" encoding="UTF-8"?>
<!DOCTYPE svg PUBLIC "-//W3C//DTD SVG 1.1//EN" "http://www.w3.org/Graphics/SVG/1.1/DTD/svg11.dtd">
<!-- Creator: CorelDRAW -->
<svg xmlns="http://www.w3.org/2000/svg" xml:space="preserve" width="21.6746mm" height="21.6746mm" version="1.1" style="shape-rendering:geometricPrecision; text-rendering:geometricPrecision; image-rendering:optimizeQuality; fill-rule:evenodd; clip-rule:evenodd"
viewBox="0 0 2167.46 2167.46"
 xmlns:xlink="http://www.w3.org/1999/xlink"
 xmlns:xodm="http://www.corel.com/coreldraw/odm/2003">
 <defs>
  <style type="text/css">
   <![CDATA[
    .str0 {stroke:#FEFEFE;stroke-width:20;stroke-miterlimit:22.9256}
    .fil0 {fill:#FEFEFE}
   ]]>
  </style>
 </defs>
 <g id="Layer_x0020_1">
  <metadata id="CorelCorpID_0Corel-Layer"/>
  <g id="_2545293719664">
   <path class="fil0 str0" d="M1724.4 1831.75c-41.5,27.4 -79.4,67.63 -128.3,100.45 -326.93,219.45 -746.1,222.09 -1073.17,2.93 -52.96,-35.48 -87.68,-73.6 -131.08,-105.65 14,-115.71 142.97,-249.47 248.59,-305.51 88.81,-47.12 59.39,-2.8 188.67,49.61 153.03,62.04 315.89,60.92 467.55,-4.19 143.67,-61.69 85.92,-92.6 176.36,-45.2 95.35,49.98 232.85,172.02 251.38,307.56zm-49.12 -1758.56c206.32,-22.21 358.63,120.63 384.53,301.15 28.73,200.27 -126.31,363.23 -296.9,385 -213.77,27.29 -369.39,-122.17 -393.47,-304.53 -26.62,-201.57 131.77,-362.88 305.84,-381.62zm254.06 703.95c79.47,99.59 90.58,404.16 62.82,552.52 -24.86,132.91 -124.28,364.08 -211.61,433.69 -71.83,-124.45 -105.57,-220.51 -280.4,-305.49 -121.65,-59.14 -104.76,-17.77 -198.04,29.65 -151.06,76.78 -321.73,87.23 -474.15,7.91 -119.49,-62.18 -84.91,-95.18 -202.06,-41.69 -63.87,29.15 -133.34,83.46 -170.11,123.26 -59.46,64.35 -71.62,103.64 -120.33,182.86 -46.88,-25.89 -132.36,-190.38 -150.25,-232.23 -208.8,-488.47 6.31,-1026.65 495.73,-1248.06 167.28,-75.68 470.78,-113.12 651.78,-35.51 -25.53,102.74 -53.68,145.41 -23.58,270.98 39.15,163.3 179.7,288.76 344.14,313.03 128.15,18.92 182.78,-15.13 276.06,-50.92zm61.39 -52.51c173.76,-125.52 204.91,-447.11 -5.75,-624.24 -82.34,-69.23 -199.74,-118.58 -340.38,-93.98 -175.81,30.74 -218.48,126.75 -278.27,172.54 -950.01,-270.69 -1643.3,720.01 -1187.54,1490.01 31.73,53.61 56.92,84.72 92.1,129.65 88.43,112.93 240.47,224.44 375.63,282.76 350.58,151.27 733.95,96.68 1017.69,-112.69 265.72,-196.07 439.27,-524.52 412.77,-889.76 -4.75,-65.43 -15.94,-130.46 -31.91,-190.47 -15.13,-56.85 -42.39,-112.24 -54.34,-163.82z"/>
   <path class="fil0 str0" d="M997.75 750.43c363.16,-90.43 504.57,480.54 127.27,567.84 -181.07,41.9 -326.92,-85.66 -353.61,-226.26 -34.95,-184.14 84.86,-306.36 226.34,-341.58zm19.38 -74.23c-188.33,26.49 -347.63,185.28 -318.12,407.81 23.97,180.77 198.96,339.44 412.17,307.87 176.63,-26.15 336.19,-192.53 306.09,-405.99 -25.26,-179.18 -192.89,-338.85 -400.14,-309.69z"/>
   <path class="fil0 str0" d="M1685.61 213.2l-5.83 171.5 -171.56 2.15c-27.47,15.14 -30.07,31.67 -5.84,54.7 39.87,25.3 125.43,1.62 177.18,11.89 1.36,54.4 -7.72,145.89 12.84,184.79l45.08 1.94c20.9,-40.47 11.92,-132.88 13.18,-186.95 57.97,-10.61 139.5,7.32 185.56,-12.1 11.83,-32.08 8.09,-40.65 -13.94,-54.24l-175.09 -4.53 -3.14 -167.86c-13.08,-34.84 -44.46,-34.48 -58.44,-1.29z"/>
  </g>
 </g>
</svg>
