<?xml version="1.0" encoding="UTF-8"?>
<!DOCTYPE svg PUBLIC "-//W3C//DTD SVG 1.1//EN" "http://www.w3.org/Graphics/SVG/1.1/DTD/svg11.dtd">
<!-- Creator: CorelDRAW -->
<svg xmlns="http://www.w3.org/2000/svg" xml:space="preserve" width="21.6746mm" height="21.6746mm" version="1.1" style="shape-rendering:geometricPrecision; text-rendering:geometricPrecision; image-rendering:optimizeQuality; fill-rule:evenodd; clip-rule:evenodd"
viewBox="0 0 2167.46 2167.46"
 xmlns:xlink="http://www.w3.org/1999/xlink"
 xmlns:xodm="http://www.corel.com/coreldraw/odm/2003">
 <defs>
  <style type="text/css">
   <![CDATA[
    .fil0 {fill:#28A745}
    .fil1 {fill:#28A745}
   ]]>
  </style>
 </defs>
 <g id="Layer_x0020_1">
  <metadata id="CorelCorpID_0Corel-Layer"/>
  <g id="_2545304139648">
   <path class="fil0" d="M70.05 586.06c10.72,-17.54 -16.12,-10.07 27.93,-14.99l475.59 0.91c218.77,0 1413.69,-8.83 1522.78,1.8 10.63,34.18 16.49,1266.06 -7.42,1278.69 -2.9,57.14 -54.88,102.52 -115.24,109.68l-1532.48 1.42c-139.05,0 -311.16,32.64 -359.45,-83.77 -24.31,-58.59 -12.38,-338.33 -12.37,-421.68 0.03,-282.39 -12.15,-593.98 0.66,-872.06zm-0.05 -79.98c-7.3,-327.64 26.56,-300.85 355.64,-300.85l1323.6 0c309.01,0 355.07,-29.5 347.9,302.9l-2027.14 -2.05zm2086.11 1372.48c17.78,-54.77 9.89,-1288.91 7.82,-1518.39 -0.79,-87.19 -32.33,-141.53 -79.33,-179.5 -53.2,-43 -119.2,-45.07 -203,-44.95l-1518.25 0.01c-119.22,0 -303.88,-26.18 -353.07,151.45 -16.62,60.01 -8.4,1347.15 -7.16,1521.46 1.36,189.41 134.56,224.75 282.36,224.45l1518.26 -0.02c181.14,0 301.14,3.37 352.37,-154.51z"/>
   <path class="fil0" d="M482.12 1270.47c28.64,-55.14 181.52,-182.08 246.56,-225.52 88.66,-59.2 220.62,-118.43 358.79,-117.4 137.99,1.03 265.81,60.06 354.96,121.09 77.02,52.74 197.71,148.82 242.36,221.73 -106.31,125.61 -338.45,338.25 -605.21,337.02 -272.42,-1.26 -484.09,-210.26 -597.46,-336.92zm543.63 -406.79c-272.83,41.25 -431.02,175.67 -597.13,356.14 -33.93,36.87 -42.63,48.38 -3.81,91.21 313.73,346.11 675.67,510.24 1104.1,199.19 46.97,-34.1 109.8,-88.17 146.62,-125.8 24.27,-24.8 39.59,-44.65 62.65,-69.77 34.11,-37.16 43.24,-46.85 3.22,-90.03 -173.25,-186.98 -430.91,-403.99 -715.65,-360.94z"/>
   <path class="fil0" d="M1030.49 1104.09c222.25,-71.01 320.46,260.18 107.53,326.8 -223.85,70.04 -324.83,-257.37 -107.53,-326.8zm3.04 -68.42c-330.72,80.34 -193.38,536.01 104.26,464.85 316.89,-75.78 193.69,-537.22 -104.26,-464.85z"/>
   <path class="fil1" d="M2088.93 1852.47c23.91,-12.63 18.05,-1244.51 7.42,-1278.69 -109.09,-10.63 -1304.01,-1.8 -1522.78,-1.8l-475.59 -0.91c-44.05,4.92 -17.21,-2.55 -27.93,14.99 52.39,-16.5 1816.1,-7.6 2024.65,-5.85 0,110.18 8.88,1192.73 -5.77,1272.26z"/>
   <path class="fil0" d="M729.5 311.39c-67.17,20.4 -31.42,107.94 26.01,90.83 56.89,-16.95 38.13,-110.31 -26.01,-90.83z"/>
   <path class="fil0" d="M582.92 387.15c19.43,-88.3 -57.15,-95.19 -81.13,-58.93 -31.48,47.58 18.7,98.44 81.13,58.93z"/>
   <path class="fil0" d="M293.84 334.72l-0.49 42.48c40.14,35.12 51.48,37.46 92.24,0.79 5.63,-79.84 -43.81,-85.56 -91.75,-43.27z"/>
  </g>
 </g>
</svg>
