<?xml version="1.0" encoding="UTF-8"?>
<!DOCTYPE svg PUBLIC "-//W3C//DTD SVG 1.1//EN" "http://www.w3.org/Graphics/SVG/1.1/DTD/svg11.dtd">
<!-- Creator: CorelDRAW -->
<svg xmlns="http://www.w3.org/2000/svg" xml:space="preserve" width="21.6746mm" height="21.6746mm" version="1.1" style="shape-rendering:geometricPrecision; text-rendering:geometricPrecision; image-rendering:optimizeQuality; fill-rule:evenodd; clip-rule:evenodd"
viewBox="0 0 2167.46 2167.46"
 xmlns:xlink="http://www.w3.org/1999/xlink"
 xmlns:xodm="http://www.corel.com/coreldraw/odm/2003">
 <defs>
  <style type="text/css">
   <![CDATA[
    .fil0 {fill:#0098DA}
   ]]>
  </style>
 </defs>
 <g id="Layer_x0020_1">
  <metadata id="CorelCorpID_0Corel-Layer"/>
  <path class="fil0" d="M1587.43 218.6c18.83,114.82 45.91,156.36 18.22,289.14 -48,230.07 -255.72,423.17 -525.72,421.8 -270.5,-1.36 -473.22,-196.79 -519.18,-428.28 -26.03,-131.15 1.52,-170.1 19.4,-282.66 -85.48,9.03 -267.38,63.94 -339.11,95.83 -120.02,53.35 -167.3,99.61 -150.71,264.92l129.74 1165.6c14.18,130.29 15.02,264.47 83.14,349.84 75.43,94.53 210.92,69.74 360.29,69.74l856.45 0c158.45,0 274.69,24.85 350.83,-79.22 61.9,-84.64 65.46,-231 78.15,-353.25 39.75,-382.8 91.77,-780.75 129.06,-1160.08 15.04,-153.05 -42.48,-212.96 -156.73,-260.02 -79.65,-32.81 -239.66,-81.59 -333.83,-93.36z"/>
  <path class="fil0" d="M1198.94 200.78c39.5,-18.76 86.56,15.37 88.66,56.45 2.81,55.16 -196.01,255.88 -206.8,260.57 -41.44,17.99 -86.34,-14.44 -89.22,-56.6 -3.92,-57.32 191.44,-252.86 207.36,-260.42zm-197.68 -189.63c-529.68,128.09 -341.81,871.72 162.77,778.4 188.8,-34.91 360.1,-236.25 310.37,-470.94 -39.81,-187.86 -233.48,-365.41 -473.14,-307.46z"/>
 </g>
</svg>
